<svg xmlns="http://www.w3.org/2000/svg" viewBox="0 0 512 512" width="100%" height="100%">
  <defs>
    <linearGradient id="kiddoGrad" x1="0%" y1="0%" x2="100%" y2="100%">
      <stop offset="0%" stop-color="#f59e0b" /> <stop offset="50%" stop-color="#ec4899" /> <stop offset="100%" stop-color="#6366f1" /> </linearGradient>
    
    <filter id="popShadow" x="-10%" y="-10%" width="120%" height="120%">
      <feDropShadow dx="0" dy="12" stdDeviation="8" flood-color="#1e293b" flood-opacity="0.15" />
    </filter>
  </defs>

  <rect width="512" height="512" rx="128" fill="url(#kiddoGrad)" />

  <rect x="24" y="24" width="464" height="464" rx="104" fill="none" stroke="#ffffff" stroke-width="12" stroke-opacity="0.25" />

  <g filter="url(#popShadow)" transform="translate(256, 240)">
    <circle cx="0" cy="0" r="140" fill="#ffffff" />
    
    <path d="M -80,-20 L 0,-60 L 80,-20 L 0,20 Z" fill="#6366f1" />
    <path d="M -40,-2 L -40,40 C -40,60 40,60 40,40 L 40,-2" fill="#4f46e5" />
    <circle cx="0" cy="-60" r="10" fill="#fbbf24" />
    <path d="M 0,-60 Q 50,-50 65,-10" fill="none" stroke="#fbbf24" stroke-width="4" />
    <rect x="60" y="-10" width="10" height="20" rx="3" fill="#fbbf24" />

    <path d="M -20,40 L -5,48 L 0,65 L 5,48 L 20,40 L 8,32 L 12,15 L 0,25 L -12,15 L -8,32 Z" fill="#fbbf24" stroke="#d97706" stroke-width="3" stroke-linejoin="round" />
  </g>

  <path d="M 100,120 L 105,135 L 120,140 L 105,145 L 100,160 L 95,145 L 80,140 L 95,135 Z" fill="#ffffff" opacity="0.8" />
  <path d="M 400,360 L 403,370 L 414,373 L 403,376 L 400,386 L 397,376 L 386,373 L 397,370 Z" fill="#ffffff" opacity="0.9" />
  <circle cx="380" cy="120" r="14" fill="#fbbf24" />
  <circle cx="120" cy="380" r="10" fill="#ffffff" opacity="0.6" />
</svg>
